<svg width="50" height="50" viewBox="0 0 50 50" fill="none" xmlns="http://www.w3.org/2000/svg">
    <path d="M23.7156 0.033408C9.95226 0.741184 -0.674374 12.52 0.0334016 26.2844C0.741177 40.0488 12.52 50.6744 26.2844 49.9666C40.0488 49.2588 50.6744 37.4811 49.9666 23.7156C49.2588 9.95005 37.4811 -0.674368 23.7156 0.033408ZM26.1711 47.7577C13.6222 48.4033 2.88895 38.7211 2.2434 26.1711C1.59784 13.6211 11.28 2.88896 23.8289 2.2434C36.3777 1.59785 47.111 11.28 47.7577 23.8289C48.4044 36.3778 38.7211 47.111 26.1711 47.7577Z" fill="#2B9D8F"/>
    <path d="M23.7156 0.033408C9.95226 0.741184 -0.674374 12.52 0.0334016 26.2844C0.741177 40.0488 12.52 50.6744 26.2844 49.9666C40.0488 49.2588 50.6744 37.4811 49.9666 23.7156C49.2588 9.95005 37.4811 -0.674368 23.7156 0.033408ZM26.1711 47.7577C13.6222 48.4033 2.88895 38.7211 2.2434 26.1711C1.59784 13.6211 11.28 2.88896 23.8289 2.2434C36.3777 1.59785 47.111 11.28 47.7577 23.8289C48.4044 36.3778 38.7211 47.111 26.1711 47.7577Z" fill="#2B9D8F"/>
    <path d="M28.6694 23.2826C30.0298 23.2826 31.1327 22.1797 31.1327 20.8193C31.1327 19.4588 30.0298 18.356 28.6694 18.356C27.3089 18.356 26.2061 19.4588 26.2061 20.8193C26.2061 22.1797 27.3089 23.2826 28.6694 23.2826Z" fill="#2B9D8F"/>
    <path d="M28.6694 23.2826C30.0298 23.2826 31.1327 22.1797 31.1327 20.8193C31.1327 19.4588 30.0298 18.356 28.6694 18.356C27.3089 18.356 26.2061 19.4588 26.2061 20.8193C26.2061 22.1797 27.3089 23.2826 28.6694 23.2826Z" fill="#2B9D8F"/>
    <path d="M40.1415 23.0617C41.502 23.0617 42.6049 21.9588 42.6049 20.5983C42.6049 19.2379 41.502 18.135 40.1415 18.135C38.7811 18.135 37.6782 19.2379 37.6782 20.5983C37.6782 21.9588 38.7811 23.0617 40.1415 23.0617Z" fill="#2B9D8F"/>
    <path d="M40.1415 23.0617C41.502 23.0617 42.6049 21.9588 42.6049 20.5983C42.6049 19.2379 41.502 18.135 40.1415 18.135C38.7811 18.135 37.6782 19.2379 37.6782 20.5983C37.6782 21.9588 38.7811 23.0617 40.1415 23.0617Z" fill="#2B9D8F"/>
    <path d="M34.8329 34.5692C33.5164 34.5663 32.2409 34.1106 31.2205 33.2787C30.2 32.4468 29.4967 31.2893 29.2285 30.0004L31.4052 29.5559C31.5682 30.3457 31.9989 31.0549 32.6245 31.5637C33.2501 32.0725 34.0322 32.3497 34.8386 32.3484C35.645 32.3471 36.4262 32.0674 37.0501 31.5566C37.6741 31.0457 38.1025 30.3351 38.2629 29.5448L40.4452 29.9815C40.1809 31.2754 39.4782 32.4385 38.4557 33.2743C37.4332 34.1102 36.1536 34.5676 34.8329 34.5692Z" fill="#2B9D8F"/>
</svg>
