<svg width="50" height="55" viewBox="0 0 50 55" fill="none" xmlns="http://www.w3.org/2000/svg">
    <path d="M48.8816 38.8493C49.7514 36.2561 50.1188 33.5388 49.9665 30.8251C49.3151 19.0116 39.1663 9.71306 26.7919 9.05187V6.78932C27.6028 6.48125 28.2739 5.91966 28.6902 5.20064C29.1065 4.48163 29.2422 3.6499 29.0741 2.84778C28.906 2.04567 28.4444 1.32303 27.7685 0.803541C27.0926 0.28405 26.2443 0 25.3688 0C24.4932 0 23.6449 0.28405 22.969 0.803541C22.2931 1.32303 21.8316 2.04567 21.6634 2.84778C21.4953 3.6499 21.631 4.48163 22.0473 5.20064C22.4637 5.91966 23.1347 6.48125 23.9457 6.78932V9.05391C12.3627 9.67831 3.06553 17.7321 1.11589 27.9852C0.41419 29.0326 -0.0149284 30.4889 0.000397239 32.0913C0.0157229 33.6354 0.438274 35.0252 1.11808 36.0329C3.25163 47.2741 14.1077 55.5711 26.6342 54.9692C29.8045 54.8204 32.9135 54.0974 35.788 52.8406C36.4308 53.4367 37.2817 53.7973 38.1856 53.8565C39.0894 53.9157 39.9859 53.6696 40.7116 53.163C41.4372 52.6565 41.9436 51.9233 42.1383 51.0972C42.333 50.2711 42.2032 49.4072 41.7723 48.6631C41.3415 47.919 40.6385 47.3443 39.7915 47.0438C38.9446 46.7433 38.0101 46.7371 37.1586 47.0263C36.3072 47.3155 35.5955 47.8808 35.1533 48.6191C34.7112 49.3574 34.5682 50.2195 34.7503 51.0481C32.1616 52.1607 29.3689 52.8007 26.5226 52.9335C15.8581 53.4445 6.52694 46.8909 3.753 37.672H3.83182C5.9183 37.625 7.58332 35.0477 7.55376 31.9165C7.52202 28.8007 5.82415 26.3102 3.75409 26.3296C6.29378 17.9161 14.3562 11.5444 24.215 11.0702C36.585 10.4764 47.1542 19.3815 47.7902 30.9232C47.9299 33.407 47.5926 35.894 46.7941 38.2668L46.7765 38.3159L48.8488 38.9413L48.8663 38.8922L48.8827 38.8442L48.8816 38.8493Z" fill="#524D5C"/>
    <path d="M39.1672 23.6967L30.8476 23.8837C30.2323 23.8967 29.6258 24.0228 29.0628 24.2548C28.4998 24.4868 27.9913 24.8202 27.5664 25.2358C27.1415 25.6514 26.8085 26.1412 26.5866 26.6771C26.3646 27.2129 26.258 27.7844 26.2728 28.3587C26.3027 29.5179 26.8244 30.6185 27.7234 31.4186C28.6223 32.2187 29.8248 32.6527 31.0665 32.6253L39.3862 32.4383C40.001 32.4245 40.6069 32.2978 41.1693 32.0654C41.7317 31.8329 42.2396 31.4994 42.6639 31.0837C43.0882 30.6681 43.4206 30.1785 43.6422 29.6429C43.8638 29.1073 43.9702 28.5362 43.9554 27.9622C43.9255 26.8041 43.4045 25.7044 42.5067 24.9046C41.609 24.1048 40.4079 23.6704 39.1672 23.6967Z" fill="#524D5C"/>
    <path d="M35.1174 38.7629C34.3243 38.7618 33.5557 38.506 32.9407 38.0383C32.3258 37.5707 31.9019 36.9197 31.7403 36.1948L29.5947 36.6036C29.8566 37.7919 30.5501 38.8592 31.558 39.625C32.5659 40.3908 33.8262 40.808 35.1257 40.8061C36.4252 40.8041 37.6841 40.3832 38.6894 39.6144C39.6946 38.8456 40.3845 37.7763 40.6423 36.5873L38.4968 36.1836C38.3373 36.9108 37.9141 37.5645 37.2985 38.0344C36.6829 38.5042 35.9126 38.7616 35.1174 38.7629Z" fill="#524D5C"/>
</svg>
