<svg width="52" height="51" viewBox="0 0 52 51" fill="none" xmlns="http://www.w3.org/2000/svg">
    <path d="M0.0969214 23.9141C0.771155 10.1104 12.5673 -0.575163 26.389 0.0981561C38.2684 0.67743 47.8413 9.46395 49.8676 20.6858C50.5856 21.8259 51.027 23.4124 51.016 25.1605C51.0048 26.8429 50.5782 28.3592 49.8884 29.4607C47.7466 41.7219 36.7081 50.7955 23.9418 50.174C20.7418 50.0215 17.6012 49.2547 14.6917 47.9155C14.0247 48.5482 13.1523 48.9204 12.2335 48.9643C11.3147 49.0083 10.4107 48.7211 9.6862 48.1549C8.96172 47.5888 8.46502 46.7816 8.28664 45.8803C8.10825 44.979 8.26006 44.0437 8.71438 43.2448C9.1687 42.446 9.8953 41.8368 10.7617 41.5282C11.6282 41.2197 12.5768 41.2324 13.4346 41.564C14.2925 41.8956 15.0024 42.524 15.4352 43.3347C15.8679 44.1454 15.9946 45.0845 15.7921 45.9807C18.3968 47.1515 21.1988 47.8225 24.052 47.9588C34.9206 48.4873 44.4102 41.3173 47.2104 31.2593C47.1836 31.2594 47.1568 31.2594 47.1301 31.2595C45.0038 31.215 43.2998 28.4096 43.3209 24.9947C43.3443 21.5987 45.0673 18.879 47.1767 18.8947C44.5624 9.72995 36.3285 2.80386 26.2811 2.31446C13.6743 1.70034 2.92979 11.4372 2.31482 24.0219C2.17958 26.7301 2.5305 29.4407 3.35099 32.0254L1.24116 32.7128C0.335991 29.8719 -0.0515589 26.8918 0.0969214 23.9141Z" fill="#E9C267"/>
    <path d="M21.5124 18.4832C22.0014 18.4915 22.477 18.6444 22.879 18.9226C23.281 19.2008 23.5914 19.5918 23.7709 20.0462C23.9504 20.5006 23.991 20.9979 23.8876 21.4754C23.7841 21.9528 23.5412 22.3889 23.1896 22.7285C22.838 23.068 22.3935 23.2959 21.9123 23.3832C21.4311 23.4704 20.9348 23.4132 20.4861 23.2188C20.0374 23.0244 19.6566 22.7014 19.3916 22.2908C19.1267 21.8802 18.9897 21.4004 18.9978 20.9119C19.0031 20.5875 19.0725 20.2674 19.2018 19.9697C19.3311 19.6721 19.5178 19.4028 19.7513 19.1773C19.9848 18.9517 20.2606 18.7743 20.5627 18.6552C20.8649 18.5361 21.1876 18.4777 21.5124 18.4832Z" fill="#E9C267"/>
    <path d="M7.47971 20.7261C7.488 20.2377 7.64107 19.7628 7.91957 19.3613C8.19808 18.9598 8.58951 18.6498 9.04439 18.4704C9.49927 18.2911 9.99717 18.2505 10.4752 18.3537C10.9531 18.4569 11.3898 18.6994 11.7298 19.0504C12.0698 19.4015 12.298 19.8453 12.3855 20.3259C12.473 20.8065 12.4159 21.3021 12.2214 21.7503C12.0269 22.1984 11.7038 22.5789 11.2928 22.8437C10.8818 23.1084 10.4015 23.2455 9.91253 23.2376C9.25647 23.2268 8.63159 22.9561 8.17535 22.4851C7.71912 22.0141 7.46889 21.3814 7.47971 20.7261Z" fill="#E9C267"/>
    <path d="M15.2567 34.7572C13.9315 34.7583 12.6465 34.3028 11.6186 33.4674C10.5907 32.632 9.88292 31.4679 9.61472 30.1717L11.7999 29.727C11.9631 30.519 12.3951 31.2304 13.0228 31.741C13.6506 32.2516 14.4356 32.53 15.2452 32.5292C16.0548 32.5284 16.8392 32.2484 17.4659 31.7365C18.0927 31.2247 18.5232 30.5123 18.6848 29.72L20.8723 30.1599C20.6064 31.4534 19.9033 32.6162 18.8808 33.4532C17.8583 34.2903 16.5787 34.7507 15.2567 34.7572Z" fill="#E9C267"/>
</svg>
